<mxfile host="app.diagrams.net" modified="2023-08-03T04:08:22.197Z" agent="Mozilla/5.0 (Windows NT 10.0; Win64; x64) AppleWebKit/537.36 (KHTML, like Gecko) Chrome/115.0.0.0 Safari/537.36" etag="HRfQEMp3r-reNJURHZgW" version="21.6.5" type="github">
  <diagram name="ページ1" id="5YMvcwKHLr_hJrbheGe3">
    <mxGraphModel dx="840" dy="1165" grid="0" gridSize="10" guides="1" tooltips="1" connect="1" arrows="1" fold="1" page="1" pageScale="1" pageWidth="827" pageHeight="1169" math="0" shadow="0">
      <root>
        <mxCell id="0" />
        <mxCell id="1" parent="0" />
        <mxCell id="lo2bIMTGq6hck81unSiq-1" value="" style="rounded=0;whiteSpace=wrap;html=1;" vertex="1" parent="1">
          <mxGeometry x="165" y="155" width="449" height="249" as="geometry" />
        </mxCell>
        <mxCell id="lo2bIMTGq6hck81unSiq-2" value="OUT" style="rounded=0;whiteSpace=wrap;html=1;" vertex="1" parent="1">
          <mxGeometry x="614" y="155" width="124" height="71" as="geometry" />
        </mxCell>
        <mxCell id="lo2bIMTGq6hck81unSiq-3" value="Packet" style="whiteSpace=wrap;html=1;fillColor=#d5e8d4;strokeColor=#82b366;" vertex="1" parent="1">
          <mxGeometry x="252" y="291" width="78" height="80" as="geometry" />
        </mxCell>
        <mxCell id="lo2bIMTGq6hck81unSiq-4" value="Que" style="whiteSpace=wrap;html=1;" vertex="1" parent="1">
          <mxGeometry x="452" y="226" width="129" height="145" as="geometry" />
        </mxCell>
        <mxCell id="lo2bIMTGq6hck81unSiq-6" value="Total outdrop について" style="text;html=1;align=center;verticalAlign=middle;resizable=0;points=[];autosize=1;strokeColor=none;fillColor=none;" vertex="1" parent="1">
          <mxGeometry x="320" y="116" width="139" height="26" as="geometry" />
        </mxCell>
        <mxCell id="lo2bIMTGq6hck81unSiq-8" value="IN" style="rounded=0;whiteSpace=wrap;html=1;" vertex="1" parent="1">
          <mxGeometry x="41" y="155" width="124" height="71" as="geometry" />
        </mxCell>
        <mxCell id="lo2bIMTGq6hck81unSiq-9" value="Packet" style="whiteSpace=wrap;html=1;fillColor=#d5e8d4;strokeColor=#82b366;" vertex="1" parent="1">
          <mxGeometry x="635" y="150.5" width="78" height="80" as="geometry" />
        </mxCell>
        <mxCell id="lo2bIMTGq6hck81unSiq-10" value="Packet" style="whiteSpace=wrap;html=1;fillColor=#d5e8d4;strokeColor=#82b366;" vertex="1" parent="1">
          <mxGeometry x="252" y="211" width="78" height="80" as="geometry" />
        </mxCell>
      </root>
    </mxGraphModel>
  </diagram>
</mxfile>
